<?xml version="1.0" encoding="UTF-8" standalone="no"?>
<!DOCTYPE svg PUBLIC "-//W3C//DTD SVG 1.1//EN"
 "http://www.w3.org/Graphics/SVG/1.1/DTD/svg11.dtd">
<!-- Generated by graphviz version 14.1.4 (20260321.0153)
 -->
<!-- Title: UseCaseUser Pages: 1 -->
<svg width="590pt" height="794pt"
 viewBox="0.00 0.00 590.00 794.00" xmlns="http://www.w3.org/2000/svg" xmlns:xlink="http://www.w3.org/1999/xlink">
<g id="graph0" class="graph" transform="scale(1 1) rotate(0) translate(28.8 764.74)">
<title>UseCaseUser</title>
<polygon fill="white" stroke="none" points="-28.8,28.8 -28.8,-764.74 561.22,-764.74 561.22,28.8 -28.8,28.8"/>
<text xml:space="preserve" text-anchor="middle" x="266.21" y="-714.84" font-family="PingFang SC" font-size="18.00">宠物医院管理系统用例图（普通用户）</text>
<g id="clust1" class="cluster">
<title>cluster_system</title>
<path fill="none" stroke="#444444" stroke-width="1.2" d="M147,-106.69C147,-106.69 512.42,-106.69 512.42,-106.69 518.42,-106.69 524.42,-112.69 524.42,-118.69 524.42,-118.69 524.42,-681.69 524.42,-681.69 524.42,-687.69 518.42,-693.69 512.42,-693.69 512.42,-693.69 147,-693.69 147,-693.69 141,-693.69 135,-687.69 135,-681.69 135,-681.69 135,-118.69 135,-118.69 135,-112.69 141,-106.69 147,-106.69"/>
<text xml:space="preserve" text-anchor="middle" x="329.71" y="-674.49" font-family="PingFang SC" font-size="16.00">宠物医院管理系统</text>
</g>
<!-- Guest -->
<g id="node1" class="node">
<title>Guest</title>
<text xml:space="preserve" text-anchor="middle" x="38" y="-633.31" font-family="PingFang SC" font-size="15.00">访客</text>
</g>
<!-- UC_Register -->
<g id="node3" class="node">
<title>UC_Register</title>
<ellipse fill="none" stroke="#222222" cx="204.73" cy="-564.69" rx="44.89" ry="18"/>
<text xml:space="preserve" text-anchor="middle" x="204.73" y="-561.91" font-family="PingFang SC" font-size="12.00">注册账号</text>
</g>
<!-- Guest&#45;&gt;UC_Register -->
<g id="edge1" class="edge">
<title>Guest&#45;&gt;UC_Register</title>
<path fill="none" stroke="#444444" d="M64.74,-625.44C91.05,-613.94 132.29,-595.91 163.03,-582.48"/>
<polygon fill="#444444" stroke="#444444" points="164.27,-585.75 172.03,-578.54 161.47,-579.34 164.27,-585.75"/>
</g>
<!-- UC_Login -->
<g id="node4" class="node">
<title>UC_Login</title>
<ellipse fill="none" stroke="#222222" cx="204.73" cy="-636.69" rx="44.89" ry="18"/>
<text xml:space="preserve" text-anchor="middle" x="204.73" y="-633.91" font-family="PingFang SC" font-size="12.00">登录系统</text>
</g>
<!-- Guest&#45;&gt;UC_Login -->
<g id="edge2" class="edge">
<title>Guest&#45;&gt;UC_Login</title>
<path fill="none" stroke="#444444" d="M64.74,-636.69C87.01,-636.69 119.98,-636.69 148.22,-636.69"/>
<polygon fill="#444444" stroke="#444444" points="148.07,-640.19 158.07,-636.69 148.07,-633.19 148.07,-640.19"/>
</g>
<!-- UC_Verify -->
<g id="node5" class="node">
<title>UC_Verify</title>
<ellipse fill="none" stroke="#222222" cx="442.07" cy="-618.69" rx="74.36" ry="18"/>
<text xml:space="preserve" text-anchor="middle" x="442.07" y="-615.91" font-family="PingFang SC" font-size="12.00">发送/校验验证码</text>
</g>
<!-- Guest&#45;&gt;UC_Verify -->
<g id="edge3" class="edge">
<title>Guest&#45;&gt;UC_Verify</title>
<path fill="none" stroke="#444444" d="M64.69,-649.7C83.58,-658.41 110.18,-668.96 135,-672.69 192.78,-681.38 208.69,-681.42 266.46,-672.69 309.78,-666.14 357.15,-650.95 391.61,-638.34"/>
<polygon fill="#444444" stroke="#444444" points="392.76,-641.65 400.91,-634.88 390.32,-635.09 392.76,-641.65"/>
</g>
<!-- User -->
<g id="node2" class="node">
<title>User</title>
<text xml:space="preserve" text-anchor="middle" x="38" y="-129.31" font-family="PingFang SC" font-size="15.00">普通用户</text>
</g>
<!-- UC_Profile -->
<g id="node6" class="node">
<title>UC_Profile</title>
<ellipse fill="none" stroke="#222222" cx="204.73" cy="-204.69" rx="61.73" ry="18"/>
<text xml:space="preserve" text-anchor="middle" x="204.73" y="-201.91" font-family="PingFang SC" font-size="12.00">维护个人资料</text>
</g>
<!-- User&#45;&gt;UC_Profile -->
<g id="edge4" class="edge">
<title>User&#45;&gt;UC_Profile</title>
<path fill="none" stroke="#444444" d="M75.97,-148.85C100.48,-159.56 132.79,-173.68 158.79,-185.05"/>
<polygon fill="#444444" stroke="#444444" points="157.18,-188.16 167.75,-188.96 159.99,-181.75 157.18,-188.16"/>
</g>
<!-- UC_CreateReservation -->
<g id="node10" class="node">
<title>UC_CreateReservation</title>
<ellipse fill="none" stroke="#222222" cx="204.73" cy="-276.69" rx="44.89" ry="18"/>
<text xml:space="preserve" text-anchor="middle" x="204.73" y="-273.91" font-family="PingFang SC" font-size="12.00">提交预约</text>
</g>
<!-- User&#45;&gt;UC_CreateReservation -->
<g id="edge5" class="edge">
<title>User&#45;&gt;UC_CreateReservation</title>
<path fill="none" stroke="#444444" d="M51.65,-150.56C68.62,-173.58 100.61,-213.81 135,-240.69 143.5,-247.33 153.4,-253.33 163,-258.46"/>
<polygon fill="#444444" stroke="#444444" points="161.36,-261.55 171.86,-262.97 164.54,-255.31 161.36,-261.55"/>
</g>
<!-- UC_ViewReservation -->
<g id="node11" class="node">
<title>UC_ViewReservation</title>
<ellipse fill="none" stroke="#222222" cx="442.07" cy="-426.69" rx="61.73" ry="18"/>
<text xml:space="preserve" text-anchor="middle" x="442.07" y="-423.91" font-family="PingFang SC" font-size="12.00">查看预约记录</text>
</g>
<!-- User&#45;&gt;UC_ViewReservation -->
<g id="edge6" class="edge">
<title>User&#45;&gt;UC_ViewReservation</title>
<path fill="none" stroke="#444444" d="M75.9,-115.83C140.97,-88.89 274.88,-46.59 334.71,-123.69 406.39,-216.06 302.83,-287.42 367.71,-384.69 373.82,-393.84 382.63,-401.23 392.06,-407.11"/>
<polygon fill="#444444" stroke="#444444" points="390.25,-410.11 400.68,-411.96 393.68,-404.01 390.25,-410.11"/>
</g>
<!-- UC_OrderList -->
<g id="node15" class="node">
<title>UC_OrderList</title>
<ellipse fill="none" stroke="#222222" cx="442.07" cy="-132.69" rx="61.73" ry="18"/>
<text xml:space="preserve" text-anchor="middle" x="442.07" y="-129.91" font-family="PingFang SC" font-size="12.00">查看订单列表</text>
</g>
<!-- User&#45;&gt;UC_OrderList -->
<g id="edge7" class="edge">
<title>User&#45;&gt;UC_OrderList</title>
<path fill="none" stroke="#444444" d="M45.33,-114.77C54.89,-90.78 75.55,-49.21 109,-31.69 197.87,14.85 241.54,5.5 334.71,-31.69 371.87,-46.52 403.49,-81.2 422.36,-105.77"/>
<polygon fill="#444444" stroke="#444444" points="419.51,-107.8 428.28,-113.74 425.13,-103.63 419.51,-107.8"/>
</g>
<!-- UC_OrderDetail -->
<g id="node16" class="node">
<title>UC_OrderDetail</title>
<ellipse fill="none" stroke="#222222" cx="204.73" cy="-132.69" rx="61.73" ry="18"/>
<text xml:space="preserve" text-anchor="middle" x="204.73" y="-129.91" font-family="PingFang SC" font-size="12.00">查看订单详情</text>
</g>
<!-- User&#45;&gt;UC_OrderDetail -->
<g id="edge8" class="edge">
<title>User&#45;&gt;UC_OrderDetail</title>
<path fill="none" stroke="#444444" d="M75.97,-132.69C92.31,-132.69 112.11,-132.69 131.2,-132.69"/>
<polygon fill="#444444" stroke="#444444" points="131.12,-136.19 141.12,-132.69 131.12,-129.19 131.12,-136.19"/>
</g>
<!-- UC_Register&#45;&gt;UC_Verify -->
<g id="edge9" class="edge">
<title>UC_Register&#45;&gt;UC_Verify</title>
<path fill="none" stroke="#666666" stroke-dasharray="5,2" d="M244.33,-573.54C280,-581.73 333.71,-594.06 376.01,-603.76"/>
<polygon fill="#666666" stroke="#666666" points="375.05,-607.13 385.58,-605.96 376.62,-600.31 375.05,-607.13"/>
<text xml:space="preserve" text-anchor="middle" x="317.09" y="-598.81" font-family="PingFang SC" font-size="10.00">include</text>
</g>
<!-- UC_Avatar -->
<g id="node7" class="node">
<title>UC_Avatar</title>
<ellipse fill="none" stroke="#222222" cx="442.07" cy="-204.69" rx="44.89" ry="18"/>
<text xml:space="preserve" text-anchor="middle" x="442.07" y="-201.91" font-family="PingFang SC" font-size="12.00">上传头像</text>
</g>
<!-- UC_Profile&#45;&gt;UC_Avatar -->
<g id="edge10" class="edge">
<title>UC_Profile&#45;&gt;UC_Avatar</title>
<path fill="none" stroke="#666666" stroke-dasharray="5,2" d="M266.95,-204.69C303.69,-204.69 350.06,-204.69 385.71,-204.69"/>
<polygon fill="#666666" stroke="#666666" points="385.37,-208.19 395.37,-204.69 385.37,-201.19 385.37,-208.19"/>
<text xml:space="preserve" text-anchor="middle" x="317.09" y="-210.19" font-family="PingFang SC" font-size="10.00">include</text>
</g>
<!-- UC_DoctorList -->
<g id="node8" class="node">
<title>UC_DoctorList</title>
<ellipse fill="none" stroke="#222222" cx="442.07" cy="-348.69" rx="61.73" ry="18"/>
<text xml:space="preserve" text-anchor="middle" x="442.07" y="-345.91" font-family="PingFang SC" font-size="12.00">查看医生列表</text>
</g>
<!-- UC_Schedule -->
<g id="node9" class="node">
<title>UC_Schedule</title>
<ellipse fill="none" stroke="#222222" cx="442.07" cy="-276.69" rx="70.15" ry="18"/>
<text xml:space="preserve" text-anchor="middle" x="442.07" y="-273.91" font-family="PingFang SC" font-size="12.00">查看可预约时段</text>
</g>
<!-- UC_CreateReservation&#45;&gt;UC_DoctorList -->
<g id="edge11" class="edge">
<title>UC_CreateReservation&#45;&gt;UC_DoctorList</title>
<path fill="none" stroke="#666666" stroke-dasharray="5,2" d="M241.22,-287.55C280.04,-299.42 342.71,-318.6 387.52,-332.31"/>
<polygon fill="#666666" stroke="#666666" points="386.47,-335.65 397.06,-335.22 388.52,-328.95 386.47,-335.65"/>
<text xml:space="preserve" text-anchor="middle" x="317.09" y="-320.35" font-family="PingFang SC" font-size="10.00">include</text>
</g>
<!-- UC_CreateReservation&#45;&gt;UC_Schedule -->
<g id="edge12" class="edge">
<title>UC_CreateReservation&#45;&gt;UC_Schedule</title>
<path fill="none" stroke="#666666" stroke-dasharray="5,2" d="M245.22,-268.42C261.88,-265.33 281.53,-262.21 299.46,-260.69 324.14,-258.6 351.18,-260.59 374.95,-263.79"/>
<polygon fill="#666666" stroke="#666666" points="374.43,-267.25 384.83,-265.23 375.44,-260.32 374.43,-267.25"/>
<text xml:space="preserve" text-anchor="middle" x="317.09" y="-266.19" font-family="PingFang SC" font-size="10.00">include</text>
</g>
<!-- UC_UpdateReservation -->
<g id="node12" class="node">
<title>UC_UpdateReservation</title>
<ellipse fill="none" stroke="#222222" cx="204.73" cy="-348.69" rx="44.89" ry="18"/>
<text xml:space="preserve" text-anchor="middle" x="204.73" y="-345.91" font-family="PingFang SC" font-size="12.00">修改预约</text>
</g>
<!-- UC_UpdateReservation&#45;&gt;UC_ViewReservation -->
<g id="edge13" class="edge">
<title>UC_UpdateReservation&#45;&gt;UC_ViewReservation</title>
<path fill="none" stroke="#666666" stroke-dasharray="5,2" d="M240.2,-360.11C279.48,-373.13 344.07,-394.54 389.38,-409.56"/>
<polygon fill="#666666" stroke="#666666" points="388.14,-412.83 398.73,-412.66 390.34,-406.19 388.14,-412.83"/>
<text xml:space="preserve" text-anchor="middle" x="317.09" y="-395.53" font-family="PingFang SC" font-size="10.00">extend</text>
</g>
<!-- UC_CancelReservation -->
<g id="node13" class="node">
<title>UC_CancelReservation</title>
<ellipse fill="none" stroke="#222222" cx="204.73" cy="-420.69" rx="44.89" ry="18"/>
<text xml:space="preserve" text-anchor="middle" x="204.73" y="-417.91" font-family="PingFang SC" font-size="12.00">取消预约</text>
</g>
<!-- UC_CancelReservation&#45;&gt;UC_ViewReservation -->
<g id="edge14" class="edge">
<title>UC_CancelReservation&#45;&gt;UC_ViewReservation</title>
<path fill="none" stroke="#666666" stroke-dasharray="5,2" d="M250,-421.82C283.44,-422.67 330.06,-423.86 368.88,-424.85"/>
<polygon fill="#666666" stroke="#666666" points="368.53,-428.34 378.61,-425.1 368.71,-421.34 368.53,-428.34"/>
<text xml:space="preserve" text-anchor="middle" x="317.09" y="-429.37" font-family="PingFang SC" font-size="10.00">extend</text>
</g>
<!-- UC_DeleteReservation -->
<g id="node14" class="node">
<title>UC_DeleteReservation</title>
<ellipse fill="none" stroke="#222222" cx="204.73" cy="-492.69" rx="61.73" ry="18"/>
<text xml:space="preserve" text-anchor="middle" x="204.73" y="-489.91" font-family="PingFang SC" font-size="12.00">删除预约记录</text>
</g>
<!-- UC_DeleteReservation&#45;&gt;UC_ViewReservation -->
<g id="edge15" class="edge">
<title>UC_DeleteReservation&#45;&gt;UC_ViewReservation</title>
<path fill="none" stroke="#666666" stroke-dasharray="5,2" d="M250.27,-480.2C288.72,-469.41 344.43,-453.79 385.73,-442.21"/>
<polygon fill="#666666" stroke="#666666" points="386.57,-445.61 395.25,-439.54 384.68,-438.87 386.57,-445.61"/>
<text xml:space="preserve" text-anchor="middle" x="317.09" y="-471.1" font-family="PingFang SC" font-size="10.00">extend</text>
</g>
<!-- UC_OrderDetail&#45;&gt;UC_OrderList -->
<g id="edge16" class="edge">
<title>UC_OrderDetail&#45;&gt;UC_OrderList</title>
<path fill="none" stroke="#666666" stroke-dasharray="5,2" d="M266.95,-132.69C298.14,-132.69 336.26,-132.69 368.87,-132.69"/>
<polygon fill="#666666" stroke="#666666" points="368.64,-136.19 378.64,-132.69 368.64,-129.19 368.64,-136.19"/>
<text xml:space="preserve" text-anchor="middle" x="317.09" y="-138.19" font-family="PingFang SC" font-size="10.00">extend</text>
</g>
</g>
</svg>
