<?xml version="1.0" encoding="UTF-8" standalone="no"?>
<!DOCTYPE svg PUBLIC "-//W3C//DTD SVG 1.1//EN"
 "http://www.w3.org/Graphics/SVG/1.1/DTD/svg11.dtd">
<!-- Generated by graphviz version 14.1.4 (20260321.0153)
 -->
<!-- Title: UserReservationSequence Pages: 1 -->
<svg width="1017pt" height="443pt"
 viewBox="0.00 0.00 1017.00 443.00" xmlns="http://www.w3.org/2000/svg" xmlns:xlink="http://www.w3.org/1999/xlink">
<g id="graph0" class="graph" transform="scale(1 1) rotate(0) translate(28.8 414.05)">
<title>UserReservationSequence</title>
<polygon fill="white" stroke="none" points="-28.8,28.8 -28.8,-414.05 988.3,-414.05 988.3,28.8 -28.8,28.8"/>
<text xml:space="preserve" text-anchor="middle" x="479.75" y="-364.15" font-family="PingFang SC" font-size="18.00">用户预约交互图</text>
<!-- User -->
<g id="node1" class="node">
<title>User</title>
<path fill="none" stroke="#222222" d="M42,-63C42,-63 12,-63 12,-63 6,-63 0,-57 0,-51 0,-51 0,-39 0,-39 0,-33 6,-27 12,-27 12,-27 42,-27 42,-27 48,-27 54,-33 54,-39 54,-39 54,-51 54,-51 54,-57 48,-63 42,-63"/>
<text xml:space="preserve" text-anchor="middle" x="27" y="-42.23" font-family="PingFang SC" font-size="12.00">用户</text>
</g>
<!-- Frontend -->
<g id="node2" class="node">
<title>Frontend</title>
<path fill="none" stroke="#222222" d="M317.75,-63C317.75,-63 277.75,-63 277.75,-63 271.75,-63 265.75,-57 265.75,-51 265.75,-51 265.75,-39 265.75,-39 265.75,-33 271.75,-27 277.75,-27 277.75,-27 317.75,-27 317.75,-27 323.75,-27 329.75,-33 329.75,-39 329.75,-39 329.75,-51 329.75,-51 329.75,-57 323.75,-63 317.75,-63"/>
<text xml:space="preserve" text-anchor="middle" x="297.75" y="-42.23" font-family="PingFang SC" font-size="12.00">前端页面</text>
</g>
<!-- User&#45;&gt;Frontend -->
<g id="edge1" class="edge">
<title>User&#45;&gt;Frontend</title>
<path fill="none" stroke="#444444" d="M54.21,-52.63C68.38,-56.75 83,-61 83,-61 83,-61 236.75,-61 236.75,-61 236.75,-61 244.5,-58.93 254.44,-56.28"/>
<polygon fill="#444444" stroke="#444444" points="255.12,-59.72 263.88,-53.76 253.32,-52.96 255.12,-59.72"/>
<text xml:space="preserve" text-anchor="middle" x="159.88" y="-66.5" font-family="PingFang SC" font-size="10.00">1. 进入预约页面</text>
</g>
<!-- User&#45;&gt;Frontend -->
<g id="edge10" class="edge">
<title>User&#45;&gt;Frontend</title>
<path fill="none" stroke="#444444" d="M54.21,-42.62C68.38,-41.33 83,-40 83,-40 83,-40 236.75,-40 236.75,-40 236.75,-40 244.34,-40.63 254.12,-41.45"/>
<polygon fill="#444444" stroke="#444444" points="253.58,-44.91 263.84,-42.26 254.16,-37.94 253.58,-44.91"/>
<text xml:space="preserve" text-anchor="middle" x="159.88" y="-45.5" font-family="PingFang SC" font-size="10.00">10. 选择医生、日期、时段并提交</text>
</g>
<!-- Frontend&#45;&gt;User -->
<g id="edge17" class="edge">
<title>Frontend&#45;&gt;User</title>
<path fill="none" stroke="#444444" d="M265.34,-29.82C250.83,-22.8 236.75,-16 236.75,-16 236.75,-16 83,-16 83,-16 83,-16 74.6,-20.43 64.37,-25.82"/>
<polygon fill="#444444" stroke="#444444" points="62.76,-22.71 55.55,-30.47 66.03,-28.91 62.76,-22.71"/>
<text xml:space="preserve" text-anchor="middle" x="159.88" y="-21.5" font-family="PingFang SC" font-size="10.00">17. 显示预约成功信息</text>
</g>
<!-- ReservationModule -->
<g id="node3" class="node">
<title>ReservationModule</title>
<path fill="none" stroke="#222222" d="M947.5,-147C947.5,-147 907.5,-147 907.5,-147 901.5,-147 895.5,-141 895.5,-135 895.5,-135 895.5,-123 895.5,-123 895.5,-117 901.5,-111 907.5,-111 907.5,-111 947.5,-111 947.5,-111 953.5,-111 959.5,-117 959.5,-123 959.5,-123 959.5,-135 959.5,-135 959.5,-141 953.5,-147 947.5,-147"/>
<text xml:space="preserve" text-anchor="middle" x="927.5" y="-126.22" font-family="PingFang SC" font-size="12.00">预约模块</text>
</g>
<!-- Frontend&#45;&gt;ReservationModule -->
<g id="edge6" class="edge">
<title>Frontend&#45;&gt;ReservationModule</title>
<path fill="none" stroke="#444444" d="M302.5,-63.2C315.64,-126.91 358.75,-336 358.75,-336 358.75,-336 866.5,-336 866.5,-336 866.5,-336 901.5,-215.24 918.04,-158.19"/>
<polygon fill="#444444" stroke="#444444" points="921.33,-159.4 920.75,-148.82 914.61,-157.45 921.33,-159.4"/>
<text xml:space="preserve" text-anchor="middle" x="599.62" y="-341.5" font-family="PingFang SC" font-size="10.00">6. 请求可预约时段</text>
</g>
<!-- Frontend&#45;&gt;ReservationModule -->
<g id="edge11" class="edge">
<title>Frontend&#45;&gt;ReservationModule</title>
<path fill="none" stroke="#444444" d="M330.16,-62.27C344.67,-70.26 358.75,-78 358.75,-78 358.75,-78 754.75,-253 754.75,-253 754.75,-253 866.5,-253 866.5,-253 866.5,-253 895.04,-194.01 912.76,-157.4"/>
<polygon fill="#444444" stroke="#444444" points="915.78,-159.19 916.99,-148.66 909.48,-156.14 915.78,-159.19"/>
<text xml:space="preserve" text-anchor="middle" x="599.62" y="-208.27" font-family="PingFang SC" font-size="10.00">11. 提交预约请求</text>
</g>
<!-- DoctorModule -->
<g id="node4" class="node">
<title>DoctorModule</title>
<path fill="none" stroke="#222222" d="M515.5,-77C515.5,-77 475.5,-77 475.5,-77 469.5,-77 463.5,-71 463.5,-65 463.5,-65 463.5,-53 463.5,-53 463.5,-47 469.5,-41 475.5,-41 475.5,-41 515.5,-41 515.5,-41 521.5,-41 527.5,-47 527.5,-53 527.5,-53 527.5,-65 527.5,-65 527.5,-71 521.5,-77 515.5,-77"/>
<text xml:space="preserve" text-anchor="middle" x="495.5" y="-56.23" font-family="PingFang SC" font-size="12.00">医生模块</text>
</g>
<!-- Frontend&#45;&gt;DoctorModule -->
<g id="edge2" class="edge">
<title>Frontend&#45;&gt;DoctorModule</title>
<path fill="none" stroke="#444444" d="M330.2,-47.25C363.16,-49.61 415.15,-53.33 451.81,-55.95"/>
<polygon fill="#444444" stroke="#444444" points="451.39,-59.43 461.62,-56.65 451.89,-52.44 451.39,-59.43"/>
<text xml:space="preserve" text-anchor="middle" x="396.62" y="-59.97" font-family="PingFang SC" font-size="10.00">2. 请求医生列表</text>
</g>
<!-- ReservationModule&#45;&gt;Frontend -->
<g id="edge9" class="edge">
<title>ReservationModule&#45;&gt;Frontend</title>
<path fill="none" stroke="#444444" d="M914.07,-110.56C896.49,-84.49 866.5,-40 866.5,-40 866.5,-40 434.5,-17 434.5,-17 434.5,-17 358.75,-17 358.75,-17 358.75,-17 350.67,-20.77 340.43,-25.55"/>
<polygon fill="#444444" stroke="#444444" points="339.11,-22.3 331.53,-29.7 342.07,-28.65 339.11,-22.3"/>
<text xml:space="preserve" text-anchor="middle" x="599.62" y="-33.47" font-family="PingFang SC" font-size="10.00">9. 返回可预约时段</text>
</g>
<!-- ReservationModule&#45;&gt;Frontend -->
<g id="edge16" class="edge">
<title>ReservationModule&#45;&gt;Frontend</title>
<path fill="none" stroke="#444444" d="M916.05,-110.88C898.86,-81.09 866.5,-25 866.5,-25 866.5,-25 642.75,0 642.75,0 642.75,0 556.5,0 556.5,0 556.5,0 358.75,-8 358.75,-8 358.75,-8 349.59,-13.65 338.44,-20.53"/>
<polygon fill="#444444" stroke="#444444" points="336.71,-17.48 330.04,-25.71 340.39,-23.44 336.71,-17.48"/>
<text xml:space="preserve" text-anchor="middle" x="599.62" y="-5.5" font-family="PingFang SC" font-size="10.00">16. 返回预约成功</text>
</g>
<!-- DB -->
<g id="node5" class="node">
<title>DB</title>
<path fill="none" stroke="#222222" d="M713.75,-133C713.75,-133 683.75,-133 683.75,-133 677.75,-133 671.75,-127 671.75,-121 671.75,-121 671.75,-109 671.75,-109 671.75,-103 677.75,-97 683.75,-97 683.75,-97 713.75,-97 713.75,-97 719.75,-97 725.75,-103 725.75,-109 725.75,-109 725.75,-121 725.75,-121 725.75,-127 719.75,-133 713.75,-133"/>
<text xml:space="preserve" text-anchor="middle" x="698.75" y="-112.22" font-family="PingFang SC" font-size="12.00">数据库</text>
</g>
<!-- ReservationModule&#45;&gt;DB -->
<g id="edge7" class="edge">
<title>ReservationModule&#45;&gt;DB</title>
<path fill="none" stroke="#444444" d="M895.09,-112.25C880.58,-104.51 866.5,-97 866.5,-97 866.5,-97 754.75,-97 754.75,-97 754.75,-97 746.7,-99.64 736.75,-102.89"/>
<polygon fill="#444444" stroke="#444444" points="735.82,-99.51 727.4,-105.95 737.99,-106.17 735.82,-99.51"/>
<text xml:space="preserve" text-anchor="middle" x="810.62" y="-102.5" font-family="PingFang SC" font-size="10.00">7. 查询排班与预约数据</text>
</g>
<!-- ReservationModule&#45;&gt;DB -->
<g id="edge12" class="edge">
<title>ReservationModule&#45;&gt;DB</title>
<path fill="none" stroke="#444444" d="M906.85,-110.66C889.36,-94.33 866.5,-73 866.5,-73 866.5,-73 754.75,-73 754.75,-73 754.75,-73 744.45,-80.86 732.77,-89.78"/>
<polygon fill="#444444" stroke="#444444" points="730.74,-86.93 724.92,-95.78 734.99,-92.49 730.74,-86.93"/>
<text xml:space="preserve" text-anchor="middle" x="810.62" y="-78.5" font-family="PingFang SC" font-size="10.00">12. 校验用户与时段信息</text>
</g>
<!-- ReservationModule&#45;&gt;DB -->
<g id="edge14" class="edge">
<title>ReservationModule&#45;&gt;DB</title>
<path fill="none" stroke="#444444" d="M912.89,-110.85C895.18,-87.24 866.5,-49 866.5,-49 866.5,-49 754.75,-49 754.75,-49 754.75,-49 737.46,-69.74 722.27,-87.97"/>
<polygon fill="#444444" stroke="#444444" points="719.75,-85.53 716.04,-95.45 725.13,-90.01 719.75,-85.53"/>
<text xml:space="preserve" text-anchor="middle" x="810.62" y="-54.5" font-family="PingFang SC" font-size="10.00">14. 保存预约记录</text>
</g>
<!-- DoctorModule&#45;&gt;Frontend -->
<g id="edge5" class="edge">
<title>DoctorModule&#45;&gt;Frontend</title>
<path fill="none" stroke="#444444" d="M463.09,-41.73C448.58,-33.74 434.5,-26 434.5,-26 434.5,-26 358.75,-26 358.75,-26 358.75,-26 351,-28.46 341.06,-31.6"/>
<polygon fill="#444444" stroke="#444444" points="340.08,-28.24 331.6,-34.6 342.19,-34.92 340.08,-28.24"/>
<text xml:space="preserve" text-anchor="middle" x="396.62" y="-31.5" font-family="PingFang SC" font-size="10.00">5. 返回医生列表</text>
</g>
<!-- DoctorModule&#45;&gt;DB -->
<g id="edge3" class="edge">
<title>DoctorModule&#45;&gt;DB</title>
<path fill="none" stroke="#444444" d="M527.95,-67.75C563.87,-77.75 622.58,-94.08 660.69,-104.69"/>
<polygon fill="#444444" stroke="#444444" points="659.31,-107.94 669.88,-107.24 661.18,-101.19 659.31,-107.94"/>
<text xml:space="preserve" text-anchor="middle" x="599.62" y="-103.95" font-family="PingFang SC" font-size="10.00">3. 查询医生信息</text>
</g>
<!-- DB&#45;&gt;ReservationModule -->
<g id="edge8" class="edge">
<title>DB&#45;&gt;ReservationModule</title>
<path fill="none" stroke="#444444" d="M708.59,-133.32C724.13,-165.54 754.75,-229 754.75,-229 754.75,-229 866.5,-229 866.5,-229 866.5,-229 891.84,-186.76 909.59,-157.18"/>
<polygon fill="#444444" stroke="#444444" points="912.57,-159.02 914.72,-148.64 906.57,-155.41 912.57,-159.02"/>
<text xml:space="preserve" text-anchor="middle" x="810.62" y="-234.5" font-family="PingFang SC" font-size="10.00">8. 返回时段数据</text>
</g>
<!-- DB&#45;&gt;ReservationModule -->
<g id="edge13" class="edge">
<title>DB&#45;&gt;ReservationModule</title>
<path fill="none" stroke="#444444" d="M717.15,-133.35C733.27,-150.34 754.75,-173 754.75,-173 754.75,-173 866.5,-173 866.5,-173 866.5,-173 878.92,-163.89 892.46,-153.96"/>
<polygon fill="#444444" stroke="#444444" points="894.19,-157.04 900.18,-148.3 890.05,-151.39 894.19,-157.04"/>
<text xml:space="preserve" text-anchor="middle" x="810.62" y="-178.5" font-family="PingFang SC" font-size="10.00">13. 校验通过</text>
</g>
<!-- DB&#45;&gt;ReservationModule -->
<g id="edge15" class="edge">
<title>DB&#45;&gt;ReservationModule</title>
<path fill="none" stroke="#444444" d="M726.2,-116.63C764.89,-119.02 837.33,-123.49 883.67,-126.36"/>
<polygon fill="#444444" stroke="#444444" points="883.44,-129.85 893.63,-126.97 883.87,-122.86 883.44,-129.85"/>
<text xml:space="preserve" text-anchor="middle" x="810.62" y="-130.75" font-family="PingFang SC" font-size="10.00">15. 返回保存结果</text>
</g>
<!-- DB&#45;&gt;DoctorModule -->
<g id="edge4" class="edge">
<title>DB&#45;&gt;DoctorModule</title>
<path fill="none" stroke="#444444" d="M681.25,-96.7C665.05,-78.73 642.75,-54 642.75,-54 642.75,-54 556.5,-54 556.5,-54 556.5,-54 548.91,-54.63 539.13,-55.45"/>
<polygon fill="#444444" stroke="#444444" points="539.09,-51.94 529.41,-56.26 539.67,-58.91 539.09,-51.94"/>
<text xml:space="preserve" text-anchor="middle" x="599.62" y="-59.5" font-family="PingFang SC" font-size="10.00">4. 返回医生列表</text>
</g>
</g>
</svg>
