<svg xmlns="http://www.w3.org/2000/svg" width="14" height="14" viewBox="0 0 14 14" fill="none">  <path fill-rule="evenodd" clip-rule="evenodd"    d="M7 14C10.866 14 14 10.866 14 7C14 3.13401 10.866 0 7 0C3.13401 0 0 3.13401 0 7C0 10.866 3.13401 14 7 14ZM10.324 5.72135C10.5666 5.46712 10.5573 5.06431 10.303 4.82164C10.0488 4.57897 9.64599 4.58833 9.40332 4.84256L6.21901 8.17851L4.59668 6.47892C4.35401 6.2247 3.9512 6.21533 3.69697 6.458C3.44274 6.70067 3.43338 7.10349 3.67605 7.35771L5.75869 9.53953C5.87877 9.66533 6.0451 9.7365 6.21901 9.7365C6.39292 9.7365 6.55925 9.66533 6.67933 9.53953L10.324 5.72135Z"    fill="#111111" style="fill:#111111;fill:color(display-p3 0.0667 0.0667 0.0667);fill-opacity:1;" /></svg>